<mxfile host="app.diagrams.net" modified="2022-09-12T15:42:14.624Z" agent="5.0 (Windows NT 10.0; Win64; x64) AppleWebKit/537.36 (KHTML, like Gecko) Chrome/105.0.0.0 Safari/537.36" etag="GRp1UGQFLnQVE4UVTX8r" version="20.3.0" type="github">
  <diagram name="Page-1" id="2c4490ee-f0b8-94ab-5012-d5dc3445f7a3">
    <mxGraphModel dx="1298" dy="603" grid="1" gridSize="10" guides="1" tooltips="1" connect="0" arrows="1" fold="1" page="1" pageScale="1.5" pageWidth="1169" pageHeight="826" background="none" math="0" shadow="0">
      <root>
        <mxCell id="0" style=";html=1;" />
        <mxCell id="1" style=";html=1;" parent="0" />
        <mxCell id="j7-8gCURON169_EvJywG-1" value="" style="shape=table;html=1;whiteSpace=wrap;startSize=0;container=1;collapsible=0;childLayout=tableLayout;fontSize=16;strokeWidth=1;swimlaneLine=1;perimeterSpacing=0;strokeColor=#000000;shadow=0;sketch=0;" parent="1" vertex="1">
          <mxGeometry x="400" y="490" width="1075" height="160" as="geometry" />
        </mxCell>
        <mxCell id="j7-8gCURON169_EvJywG-2" value="" style="shape=tableRow;horizontal=0;startSize=0;swimlaneHead=0;swimlaneBody=0;top=0;left=0;bottom=0;right=0;collapsible=0;dropTarget=0;fillColor=none;points=[[0,0.5],[1,0.5]];portConstraint=eastwest;fontSize=16;strokeColor=#000000;strokeWidth=1;perimeterSpacing=0;shadow=0;sketch=0;swimlaneLine=1;" parent="j7-8gCURON169_EvJywG-1" vertex="1">
          <mxGeometry width="1075" height="40" as="geometry" />
        </mxCell>
        <mxCell id="j7-8gCURON169_EvJywG-3" value="N4" style="shape=partialRectangle;html=1;whiteSpace=wrap;connectable=0;fillColor=#4D4D4D;top=0;left=0;bottom=0;right=0;overflow=hidden;fontColor=#FFFFFF;fontSize=16;strokeColor=#000000;strokeWidth=1;perimeterSpacing=0;shadow=0;sketch=0;swimlaneLine=1;" parent="j7-8gCURON169_EvJywG-2" vertex="1">
          <mxGeometry width="41" height="40" as="geometry">
            <mxRectangle width="41" height="40" as="alternateBounds" />
          </mxGeometry>
        </mxCell>
        <mxCell id="j7-8gCURON169_EvJywG-164" style="shape=partialRectangle;html=1;whiteSpace=wrap;connectable=0;fillColor=none;top=0;left=0;bottom=0;right=0;overflow=hidden;fontSize=16;strokeColor=#000000;strokeWidth=1;perimeterSpacing=0;shadow=0;sketch=0;swimlaneLine=1;" parent="j7-8gCURON169_EvJywG-2" vertex="1">
          <mxGeometry x="41" width="42" height="40" as="geometry">
            <mxRectangle width="42" height="40" as="alternateBounds" />
          </mxGeometry>
        </mxCell>
        <mxCell id="j7-8gCURON169_EvJywG-158" style="shape=partialRectangle;html=1;whiteSpace=wrap;connectable=0;fillColor=none;top=0;left=0;bottom=0;right=0;overflow=hidden;fontSize=16;strokeColor=#000000;strokeWidth=1;perimeterSpacing=0;shadow=0;sketch=0;swimlaneLine=1;" parent="j7-8gCURON169_EvJywG-2" vertex="1">
          <mxGeometry x="83" width="41" height="40" as="geometry">
            <mxRectangle width="41" height="40" as="alternateBounds" />
          </mxGeometry>
        </mxCell>
        <mxCell id="j7-8gCURON169_EvJywG-152" style="shape=partialRectangle;html=1;whiteSpace=wrap;connectable=0;fillColor=none;top=0;left=0;bottom=0;right=0;overflow=hidden;fontSize=16;strokeColor=#000000;strokeWidth=1;perimeterSpacing=0;shadow=0;sketch=0;swimlaneLine=1;" parent="j7-8gCURON169_EvJywG-2" vertex="1">
          <mxGeometry x="124" width="41" height="40" as="geometry">
            <mxRectangle width="41" height="40" as="alternateBounds" />
          </mxGeometry>
        </mxCell>
        <mxCell id="j7-8gCURON169_EvJywG-146" value="F1" style="shape=partialRectangle;html=1;whiteSpace=wrap;connectable=0;fillColor=#e1d5e7;top=0;left=0;bottom=0;right=0;overflow=hidden;fontSize=16;strokeColor=#9673a6;strokeWidth=1;perimeterSpacing=0;shadow=0;sketch=0;swimlaneLine=1;" parent="j7-8gCURON169_EvJywG-2" vertex="1">
          <mxGeometry x="165" width="42" height="40" as="geometry">
            <mxRectangle width="42" height="40" as="alternateBounds" />
          </mxGeometry>
        </mxCell>
        <mxCell id="j7-8gCURON169_EvJywG-140" value="B1" style="shape=partialRectangle;html=1;whiteSpace=wrap;connectable=0;fillColor=#e1d5e7;top=0;left=0;bottom=0;right=0;overflow=hidden;fontSize=16;strokeColor=#9673a6;strokeWidth=1;perimeterSpacing=0;shadow=0;sketch=0;swimlaneLine=1;rowspan=1;colspan=2;" parent="j7-8gCURON169_EvJywG-2" vertex="1">
          <mxGeometry x="207" width="82" height="40" as="geometry">
            <mxRectangle width="41" height="40" as="alternateBounds" />
          </mxGeometry>
        </mxCell>
        <mxCell id="j7-8gCURON169_EvJywG-134" value="F3" style="shape=partialRectangle;html=1;whiteSpace=wrap;connectable=0;fillColor=#fff2cc;top=0;left=0;bottom=0;right=0;overflow=hidden;fontSize=16;strokeColor=#d6b656;strokeWidth=1;perimeterSpacing=0;shadow=0;sketch=0;swimlaneLine=1;" parent="j7-8gCURON169_EvJywG-2" vertex="1" visible="0">
          <mxGeometry x="248" width="41" height="40" as="geometry">
            <mxRectangle width="41" height="40" as="alternateBounds" />
          </mxGeometry>
        </mxCell>
        <mxCell id="j7-8gCURON169_EvJywG-110" value="F2" style="shape=partialRectangle;html=1;whiteSpace=wrap;connectable=0;fillColor=#e1d5e7;top=0;left=0;bottom=0;right=0;overflow=hidden;fontSize=16;strokeColor=#9673a6;" parent="j7-8gCURON169_EvJywG-2" vertex="1">
          <mxGeometry x="289" width="42" height="40" as="geometry">
            <mxRectangle width="42" height="40" as="alternateBounds" />
          </mxGeometry>
        </mxCell>
        <mxCell id="j7-8gCURON169_EvJywG-98" value="B2" style="shape=partialRectangle;html=1;whiteSpace=wrap;connectable=0;fillColor=#e1d5e7;top=0;left=0;bottom=0;right=0;overflow=hidden;fontSize=16;strokeColor=#9673a6;rowspan=1;colspan=2;" parent="j7-8gCURON169_EvJywG-2" vertex="1">
          <mxGeometry x="331" width="82" height="40" as="geometry">
            <mxRectangle width="41" height="40" as="alternateBounds" />
          </mxGeometry>
        </mxCell>
        <mxCell id="j7-8gCURON169_EvJywG-86" style="shape=partialRectangle;html=1;whiteSpace=wrap;connectable=0;fillColor=#fff2cc;top=0;left=0;bottom=0;right=0;overflow=hidden;fontSize=16;strokeColor=#d6b656;" parent="j7-8gCURON169_EvJywG-2" vertex="1" visible="0">
          <mxGeometry x="372" width="41" height="40" as="geometry">
            <mxRectangle width="41" height="40" as="alternateBounds" />
          </mxGeometry>
        </mxCell>
        <mxCell id="j7-8gCURON169_EvJywG-74" value="F3" style="shape=partialRectangle;html=1;whiteSpace=wrap;connectable=0;fillColor=#e1d5e7;top=0;left=0;bottom=0;right=0;overflow=hidden;fontSize=16;strokeColor=#9673a6;" parent="j7-8gCURON169_EvJywG-2" vertex="1">
          <mxGeometry x="413" width="42" height="40" as="geometry">
            <mxRectangle width="42" height="40" as="alternateBounds" />
          </mxGeometry>
        </mxCell>
        <mxCell id="j7-8gCURON169_EvJywG-62" value="B3" style="shape=partialRectangle;html=1;whiteSpace=wrap;connectable=0;fillColor=#e1d5e7;top=0;left=0;bottom=0;right=0;overflow=hidden;fontSize=16;rowspan=1;colspan=2;strokeColor=#9673a6;" parent="j7-8gCURON169_EvJywG-2" vertex="1">
          <mxGeometry x="455" width="82" height="40" as="geometry">
            <mxRectangle width="41" height="40" as="alternateBounds" />
          </mxGeometry>
        </mxCell>
        <mxCell id="j7-8gCURON169_EvJywG-56" style="shape=partialRectangle;html=1;whiteSpace=wrap;connectable=0;fillColor=#fff2cc;top=0;left=0;bottom=0;right=0;overflow=hidden;fontSize=16;strokeColor=#d6b656;strokeWidth=1;perimeterSpacing=0;shadow=0;sketch=0;swimlaneLine=1;" parent="j7-8gCURON169_EvJywG-2" vertex="1" visible="0">
          <mxGeometry x="496" width="41" height="40" as="geometry">
            <mxRectangle width="41" height="40" as="alternateBounds" />
          </mxGeometry>
        </mxCell>
        <mxCell id="j7-8gCURON169_EvJywG-50" value="F4" style="shape=partialRectangle;html=1;whiteSpace=wrap;connectable=0;fillColor=#e1d5e7;top=0;left=0;bottom=0;right=0;overflow=hidden;fontSize=16;strokeColor=#9673a6;strokeWidth=1;perimeterSpacing=0;shadow=0;sketch=0;swimlaneLine=1;" parent="j7-8gCURON169_EvJywG-2" vertex="1">
          <mxGeometry x="537" width="42" height="40" as="geometry">
            <mxRectangle width="42" height="40" as="alternateBounds" />
          </mxGeometry>
        </mxCell>
        <mxCell id="j7-8gCURON169_EvJywG-44" value="B4" style="shape=partialRectangle;html=1;whiteSpace=wrap;connectable=0;fillColor=#e1d5e7;top=0;left=0;bottom=0;right=0;overflow=hidden;fontSize=16;strokeColor=#9673a6;strokeWidth=1;perimeterSpacing=0;shadow=0;sketch=0;swimlaneLine=1;rowspan=1;colspan=2;fillStyle=auto;labelBorderColor=none;" parent="j7-8gCURON169_EvJywG-2" vertex="1">
          <mxGeometry x="579" width="82" height="40" as="geometry">
            <mxRectangle width="41" height="40" as="alternateBounds" />
          </mxGeometry>
        </mxCell>
        <mxCell id="j7-8gCURON169_EvJywG-38" style="shape=partialRectangle;html=1;whiteSpace=wrap;connectable=0;fillColor=#fff2cc;top=0;left=0;bottom=0;right=0;overflow=hidden;fontSize=16;strokeColor=#d6b656;strokeWidth=1;perimeterSpacing=0;shadow=0;sketch=0;swimlaneLine=1;" parent="j7-8gCURON169_EvJywG-2" vertex="1" visible="0">
          <mxGeometry x="620" width="41" height="40" as="geometry">
            <mxRectangle width="41" height="40" as="alternateBounds" />
          </mxGeometry>
        </mxCell>
        <mxCell id="j7-8gCURON169_EvJywG-32" value="F5" style="shape=partialRectangle;html=1;whiteSpace=wrap;connectable=0;fillColor=#e1d5e7;top=0;left=0;bottom=0;right=0;overflow=hidden;fontSize=16;strokeColor=#9673a6;strokeWidth=1;perimeterSpacing=0;shadow=0;sketch=0;swimlaneLine=1;" parent="j7-8gCURON169_EvJywG-2" vertex="1">
          <mxGeometry x="661" width="42" height="40" as="geometry">
            <mxRectangle width="42" height="40" as="alternateBounds" />
          </mxGeometry>
        </mxCell>
        <mxCell id="j7-8gCURON169_EvJywG-26" value="B5" style="shape=partialRectangle;html=1;whiteSpace=wrap;connectable=0;fillColor=#e1d5e7;top=0;left=0;bottom=0;right=0;overflow=hidden;fontSize=16;strokeColor=#9673a6;strokeWidth=1;perimeterSpacing=0;shadow=0;sketch=0;swimlaneLine=1;rowspan=1;colspan=2;" parent="j7-8gCURON169_EvJywG-2" vertex="1">
          <mxGeometry x="703" width="82" height="40" as="geometry">
            <mxRectangle width="41" height="40" as="alternateBounds" />
          </mxGeometry>
        </mxCell>
        <mxCell id="j7-8gCURON169_EvJywG-4" value="" style="shape=partialRectangle;html=1;whiteSpace=wrap;connectable=0;fillColor=none;top=0;left=0;bottom=0;right=0;overflow=hidden;fontSize=16;strokeColor=#000000;strokeWidth=1;perimeterSpacing=0;shadow=0;sketch=0;swimlaneLine=1;" parent="j7-8gCURON169_EvJywG-2" vertex="1" visible="0">
          <mxGeometry x="744" width="41" height="40" as="geometry">
            <mxRectangle width="41" height="40" as="alternateBounds" />
          </mxGeometry>
        </mxCell>
        <mxCell id="j7-8gCURON169_EvJywG-233" style="shape=partialRectangle;html=1;whiteSpace=wrap;connectable=0;fillColor=none;top=0;left=0;bottom=0;right=0;overflow=hidden;fontSize=16;strokeColor=#000000;strokeWidth=1;perimeterSpacing=0;shadow=0;sketch=0;swimlaneLine=1;" parent="j7-8gCURON169_EvJywG-2" vertex="1">
          <mxGeometry x="785" width="42" height="40" as="geometry">
            <mxRectangle width="42" height="40" as="alternateBounds" />
          </mxGeometry>
        </mxCell>
        <mxCell id="j7-8gCURON169_EvJywG-227" style="shape=partialRectangle;html=1;whiteSpace=wrap;connectable=0;fillColor=none;top=0;left=0;bottom=0;right=0;overflow=hidden;fontSize=16;strokeColor=#000000;strokeWidth=1;perimeterSpacing=0;shadow=0;sketch=0;swimlaneLine=1;" parent="j7-8gCURON169_EvJywG-2" vertex="1">
          <mxGeometry x="827" width="41" height="40" as="geometry">
            <mxRectangle width="41" height="40" as="alternateBounds" />
          </mxGeometry>
        </mxCell>
        <mxCell id="j7-8gCURON169_EvJywG-5" value="" style="shape=partialRectangle;html=1;whiteSpace=wrap;connectable=0;fillColor=none;top=0;left=0;bottom=0;right=0;overflow=hidden;fontSize=16;strokeColor=#000000;strokeWidth=1;perimeterSpacing=0;shadow=0;sketch=0;swimlaneLine=1;" parent="j7-8gCURON169_EvJywG-2" vertex="1">
          <mxGeometry x="868" width="41" height="40" as="geometry">
            <mxRectangle width="41" height="40" as="alternateBounds" />
          </mxGeometry>
        </mxCell>
        <mxCell id="j7-8gCURON169_EvJywG-128" value="" style="shape=partialRectangle;html=1;whiteSpace=wrap;connectable=0;fillColor=none;top=0;left=0;bottom=0;right=0;overflow=hidden;fontSize=16;strokeColor=#000000;strokeWidth=1;perimeterSpacing=0;shadow=0;sketch=0;swimlaneLine=1;" parent="j7-8gCURON169_EvJywG-2" vertex="1">
          <mxGeometry x="909" width="42" height="40" as="geometry">
            <mxRectangle width="42" height="40" as="alternateBounds" />
          </mxGeometry>
        </mxCell>
        <mxCell id="j7-8gCURON169_EvJywG-122" value="" style="shape=partialRectangle;html=1;whiteSpace=wrap;connectable=0;fillColor=none;top=0;left=0;bottom=0;right=0;overflow=hidden;fontSize=16;strokeColor=#000000;strokeWidth=1;perimeterSpacing=0;shadow=0;sketch=0;swimlaneLine=1;" parent="j7-8gCURON169_EvJywG-2" vertex="1">
          <mxGeometry x="951" width="41" height="40" as="geometry">
            <mxRectangle width="41" height="40" as="alternateBounds" />
          </mxGeometry>
        </mxCell>
        <mxCell id="j7-8gCURON169_EvJywG-116" value="" style="shape=partialRectangle;html=1;whiteSpace=wrap;connectable=0;fillColor=none;top=0;left=0;bottom=0;right=0;overflow=hidden;fontSize=16;strokeColor=#000000;strokeWidth=1;perimeterSpacing=0;shadow=0;sketch=0;swimlaneLine=1;" parent="j7-8gCURON169_EvJywG-2" vertex="1">
          <mxGeometry x="992" width="41" height="40" as="geometry">
            <mxRectangle width="41" height="40" as="alternateBounds" />
          </mxGeometry>
        </mxCell>
        <mxCell id="j7-8gCURON169_EvJywG-104" value="" style="shape=partialRectangle;html=1;whiteSpace=wrap;connectable=0;fillColor=none;top=0;left=0;bottom=0;right=0;overflow=hidden;fontSize=16;strokeColor=#000000;strokeWidth=1;perimeterSpacing=0;shadow=0;sketch=0;swimlaneLine=1;" parent="j7-8gCURON169_EvJywG-2" vertex="1">
          <mxGeometry x="1033" width="42" height="40" as="geometry">
            <mxRectangle width="42" height="40" as="alternateBounds" />
          </mxGeometry>
        </mxCell>
        <mxCell id="j7-8gCURON169_EvJywG-6" value="" style="shape=tableRow;horizontal=0;startSize=0;swimlaneHead=0;swimlaneBody=0;top=0;left=0;bottom=0;right=0;collapsible=0;dropTarget=0;fillColor=none;points=[[0,0.5],[1,0.5]];portConstraint=eastwest;fontSize=16;strokeColor=#000000;strokeWidth=1;perimeterSpacing=0;shadow=0;sketch=0;swimlaneLine=1;" parent="j7-8gCURON169_EvJywG-1" vertex="1">
          <mxGeometry y="40" width="1075" height="40" as="geometry" />
        </mxCell>
        <mxCell id="j7-8gCURON169_EvJywG-7" value="N3" style="shape=partialRectangle;html=1;whiteSpace=wrap;connectable=0;fillColor=#4D4D4D;top=0;left=0;bottom=0;right=0;overflow=hidden;fontColor=#FFFFFF;fontSize=16;strokeColor=#000000;strokeWidth=1;perimeterSpacing=0;shadow=0;sketch=0;swimlaneLine=1;" parent="j7-8gCURON169_EvJywG-6" vertex="1">
          <mxGeometry width="41" height="40" as="geometry">
            <mxRectangle width="41" height="40" as="alternateBounds" />
          </mxGeometry>
        </mxCell>
        <mxCell id="j7-8gCURON169_EvJywG-165" style="shape=partialRectangle;html=1;whiteSpace=wrap;connectable=0;fillColor=none;top=0;left=0;bottom=0;right=0;overflow=hidden;fontSize=16;strokeColor=#000000;strokeWidth=1;perimeterSpacing=0;shadow=0;sketch=0;swimlaneLine=1;" parent="j7-8gCURON169_EvJywG-6" vertex="1">
          <mxGeometry x="41" width="42" height="40" as="geometry">
            <mxRectangle width="42" height="40" as="alternateBounds" />
          </mxGeometry>
        </mxCell>
        <mxCell id="j7-8gCURON169_EvJywG-159" style="shape=partialRectangle;html=1;whiteSpace=wrap;connectable=0;fillColor=none;top=0;left=0;bottom=0;right=0;overflow=hidden;fontSize=16;strokeColor=#000000;strokeWidth=1;perimeterSpacing=0;shadow=0;sketch=0;swimlaneLine=1;" parent="j7-8gCURON169_EvJywG-6" vertex="1">
          <mxGeometry x="83" width="41" height="40" as="geometry">
            <mxRectangle width="41" height="40" as="alternateBounds" />
          </mxGeometry>
        </mxCell>
        <mxCell id="j7-8gCURON169_EvJywG-153" value="F1" style="shape=partialRectangle;html=1;whiteSpace=wrap;connectable=0;fillColor=#ffe6cc;top=0;left=0;bottom=0;right=0;overflow=hidden;fontSize=16;strokeColor=#d79b00;strokeWidth=1;perimeterSpacing=0;shadow=0;sketch=0;swimlaneLine=1;" parent="j7-8gCURON169_EvJywG-6" vertex="1">
          <mxGeometry x="124" width="41" height="40" as="geometry">
            <mxRectangle width="41" height="40" as="alternateBounds" />
          </mxGeometry>
        </mxCell>
        <mxCell id="j7-8gCURON169_EvJywG-147" value="F2" style="shape=partialRectangle;html=1;whiteSpace=wrap;connectable=0;fillColor=#ffe6cc;top=0;left=0;bottom=0;right=0;overflow=hidden;fontSize=16;strokeColor=#d79b00;strokeWidth=1;perimeterSpacing=0;shadow=0;sketch=0;swimlaneLine=1;" parent="j7-8gCURON169_EvJywG-6" vertex="1">
          <mxGeometry x="165" width="42" height="40" as="geometry">
            <mxRectangle width="42" height="40" as="alternateBounds" />
          </mxGeometry>
        </mxCell>
        <mxCell id="j7-8gCURON169_EvJywG-141" value="F3" style="shape=partialRectangle;html=1;whiteSpace=wrap;connectable=0;fillColor=#ffe6cc;top=0;left=0;bottom=0;right=0;overflow=hidden;fontSize=16;strokeColor=#d79b00;strokeWidth=1;perimeterSpacing=0;shadow=0;sketch=0;swimlaneLine=1;" parent="j7-8gCURON169_EvJywG-6" vertex="1">
          <mxGeometry x="207" width="41" height="40" as="geometry">
            <mxRectangle width="41" height="40" as="alternateBounds" />
          </mxGeometry>
        </mxCell>
        <mxCell id="j7-8gCURON169_EvJywG-135" value="F4" style="shape=partialRectangle;html=1;whiteSpace=wrap;connectable=0;fillColor=#ffe6cc;top=0;left=0;bottom=0;right=0;overflow=hidden;fontSize=16;strokeColor=#d79b00;strokeWidth=1;perimeterSpacing=0;shadow=0;sketch=0;swimlaneLine=1;" parent="j7-8gCURON169_EvJywG-6" vertex="1">
          <mxGeometry x="248" width="41" height="40" as="geometry">
            <mxRectangle width="41" height="40" as="alternateBounds" />
          </mxGeometry>
        </mxCell>
        <mxCell id="j7-8gCURON169_EvJywG-129" value="B1" style="shape=partialRectangle;html=1;whiteSpace=wrap;connectable=0;fillColor=#ffe6cc;top=0;left=0;bottom=0;right=0;overflow=hidden;fontSize=16;strokeColor=#d79b00;strokeWidth=1;perimeterSpacing=0;shadow=0;sketch=0;swimlaneLine=1;rowspan=1;colspan=2;" parent="j7-8gCURON169_EvJywG-6" vertex="1">
          <mxGeometry x="289" width="83" height="40" as="geometry">
            <mxRectangle width="42" height="40" as="alternateBounds" />
          </mxGeometry>
        </mxCell>
        <mxCell id="j7-8gCURON169_EvJywG-123" value="B2" style="shape=partialRectangle;html=1;whiteSpace=wrap;connectable=0;fillColor=#ffe6cc;top=0;left=0;bottom=0;right=0;overflow=hidden;fontSize=16;strokeColor=#d79b00;strokeWidth=1;perimeterSpacing=0;shadow=0;sketch=0;swimlaneLine=1;" parent="j7-8gCURON169_EvJywG-6" vertex="1" visible="0">
          <mxGeometry x="331" width="41" height="40" as="geometry">
            <mxRectangle width="41" height="40" as="alternateBounds" />
          </mxGeometry>
        </mxCell>
        <mxCell id="j7-8gCURON169_EvJywG-117" value="F5" style="shape=partialRectangle;html=1;whiteSpace=wrap;connectable=0;fillColor=#ffe6cc;top=0;left=0;bottom=0;right=0;overflow=hidden;fontSize=16;strokeColor=#d79b00;strokeWidth=1;perimeterSpacing=0;shadow=0;sketch=0;swimlaneLine=1;" parent="j7-8gCURON169_EvJywG-6" vertex="1">
          <mxGeometry x="372" width="41" height="40" as="geometry">
            <mxRectangle width="41" height="40" as="alternateBounds" />
          </mxGeometry>
        </mxCell>
        <mxCell id="j7-8gCURON169_EvJywG-105" value="B2" style="shape=partialRectangle;html=1;whiteSpace=wrap;connectable=0;fillColor=#ffe6cc;top=0;left=0;bottom=0;right=0;overflow=hidden;fontSize=16;strokeColor=#d79b00;strokeWidth=1;perimeterSpacing=0;shadow=0;sketch=0;swimlaneLine=1;rowspan=1;colspan=2;" parent="j7-8gCURON169_EvJywG-6" vertex="1">
          <mxGeometry x="413" width="83" height="40" as="geometry">
            <mxRectangle width="42" height="40" as="alternateBounds" />
          </mxGeometry>
        </mxCell>
        <mxCell id="j7-8gCURON169_EvJywG-111" value="" style="shape=partialRectangle;html=1;whiteSpace=wrap;connectable=0;fillColor=none;top=0;left=0;bottom=0;right=0;overflow=hidden;fontSize=16;strokeColor=#000000;strokeWidth=1;perimeterSpacing=0;shadow=0;sketch=0;swimlaneLine=1;" parent="j7-8gCURON169_EvJywG-6" vertex="1" visible="0">
          <mxGeometry x="455" width="41" height="40" as="geometry">
            <mxRectangle width="41" height="40" as="alternateBounds" />
          </mxGeometry>
        </mxCell>
        <mxCell id="j7-8gCURON169_EvJywG-93" value="BR1" style="shape=partialRectangle;html=1;whiteSpace=wrap;connectable=0;fillColor=#eeeeee;top=0;left=0;bottom=0;right=0;overflow=hidden;fontSize=16;strokeColor=#36393d;strokeWidth=1;shadow=0;sketch=0;" parent="j7-8gCURON169_EvJywG-6" vertex="1">
          <mxGeometry x="496" width="41" height="40" as="geometry">
            <mxRectangle width="41" height="40" as="alternateBounds" />
          </mxGeometry>
        </mxCell>
        <mxCell id="j7-8gCURON169_EvJywG-99" value="B3" style="shape=partialRectangle;html=1;whiteSpace=wrap;connectable=0;fillColor=#ffe6cc;top=0;left=0;bottom=0;right=0;overflow=hidden;fontSize=16;strokeColor=#d79b00;strokeWidth=1;perimeterSpacing=0;shadow=0;sketch=0;swimlaneLine=1;rowspan=1;colspan=2;" parent="j7-8gCURON169_EvJywG-6" vertex="1">
          <mxGeometry x="537" width="83" height="40" as="geometry">
            <mxRectangle width="42" height="40" as="alternateBounds" />
          </mxGeometry>
        </mxCell>
        <mxCell id="j7-8gCURON169_EvJywG-81" value="" style="shape=partialRectangle;html=1;whiteSpace=wrap;connectable=0;fillColor=none;top=0;left=0;bottom=0;right=0;overflow=hidden;fontSize=16;strokeColor=#000000;strokeWidth=1;shadow=0;sketch=0;" parent="j7-8gCURON169_EvJywG-6" vertex="1" visible="0">
          <mxGeometry x="579" width="41" height="40" as="geometry">
            <mxRectangle width="41" height="40" as="alternateBounds" />
          </mxGeometry>
        </mxCell>
        <mxCell id="j7-8gCURON169_EvJywG-87" value="BR2" style="shape=partialRectangle;html=1;whiteSpace=wrap;connectable=0;fillColor=#eeeeee;top=0;left=0;bottom=0;right=0;overflow=hidden;fontSize=16;strokeColor=#36393d;strokeWidth=1;perimeterSpacing=0;shadow=0;sketch=0;swimlaneLine=1;" parent="j7-8gCURON169_EvJywG-6" vertex="1">
          <mxGeometry x="620" width="41" height="40" as="geometry">
            <mxRectangle width="41" height="40" as="alternateBounds" />
          </mxGeometry>
        </mxCell>
        <mxCell id="j7-8gCURON169_EvJywG-69" value="B4" style="shape=partialRectangle;html=1;whiteSpace=wrap;connectable=0;fillColor=#ffe6cc;top=0;left=0;bottom=0;right=0;overflow=hidden;fontSize=16;strokeColor=#d79b00;strokeWidth=1;shadow=0;sketch=0;rowspan=1;colspan=2;" parent="j7-8gCURON169_EvJywG-6" vertex="1">
          <mxGeometry x="661" width="83" height="40" as="geometry">
            <mxRectangle width="42" height="40" as="alternateBounds" />
          </mxGeometry>
        </mxCell>
        <mxCell id="j7-8gCURON169_EvJywG-75" value="" style="shape=partialRectangle;html=1;whiteSpace=wrap;connectable=0;fillColor=none;top=0;left=0;bottom=0;right=0;overflow=hidden;fontSize=16;strokeColor=#000000;strokeWidth=1;perimeterSpacing=0;shadow=0;sketch=0;swimlaneLine=1;" parent="j7-8gCURON169_EvJywG-6" vertex="1" visible="0">
          <mxGeometry x="703" width="41" height="40" as="geometry">
            <mxRectangle width="41" height="40" as="alternateBounds" />
          </mxGeometry>
        </mxCell>
        <mxCell id="j7-8gCURON169_EvJywG-57" value="BR3" style="shape=partialRectangle;html=1;whiteSpace=wrap;connectable=0;fillColor=#eeeeee;top=0;left=0;bottom=0;right=0;overflow=hidden;fontSize=16;strokeColor=#36393d;strokeWidth=1;shadow=0;sketch=0;" parent="j7-8gCURON169_EvJywG-6" vertex="1">
          <mxGeometry x="744" width="41" height="40" as="geometry">
            <mxRectangle width="41" height="40" as="alternateBounds" />
          </mxGeometry>
        </mxCell>
        <mxCell id="j7-8gCURON169_EvJywG-63" value="B5" style="shape=partialRectangle;html=1;whiteSpace=wrap;connectable=0;fillColor=#ffe6cc;top=0;left=0;bottom=0;right=0;overflow=hidden;fontSize=16;strokeColor=#d79b00;strokeWidth=1;perimeterSpacing=0;shadow=0;sketch=0;swimlaneLine=1;rowspan=1;colspan=2;" parent="j7-8gCURON169_EvJywG-6" vertex="1">
          <mxGeometry x="785" width="83" height="40" as="geometry">
            <mxRectangle width="42" height="40" as="alternateBounds" />
          </mxGeometry>
        </mxCell>
        <mxCell id="j7-8gCURON169_EvJywG-51" style="shape=partialRectangle;html=1;whiteSpace=wrap;connectable=0;fillColor=none;top=0;left=0;bottom=0;right=0;overflow=hidden;fontSize=16;strokeColor=#000000;strokeWidth=1;shadow=0;sketch=0;" parent="j7-8gCURON169_EvJywG-6" vertex="1" visible="0">
          <mxGeometry x="827" width="41" height="40" as="geometry">
            <mxRectangle width="41" height="40" as="alternateBounds" />
          </mxGeometry>
        </mxCell>
        <mxCell id="j7-8gCURON169_EvJywG-45" value="BR4" style="shape=partialRectangle;html=1;whiteSpace=wrap;connectable=0;fillColor=#eeeeee;top=0;left=0;bottom=0;right=0;overflow=hidden;fontSize=16;strokeColor=#36393d;strokeWidth=1;perimeterSpacing=0;shadow=0;sketch=0;swimlaneLine=1;" parent="j7-8gCURON169_EvJywG-6" vertex="1">
          <mxGeometry x="868" width="41" height="40" as="geometry">
            <mxRectangle width="41" height="40" as="alternateBounds" />
          </mxGeometry>
        </mxCell>
        <mxCell id="j7-8gCURON169_EvJywG-39" value="BR5" style="shape=partialRectangle;html=1;whiteSpace=wrap;connectable=0;fillColor=#eeeeee;top=0;left=0;bottom=0;right=0;overflow=hidden;fontSize=16;strokeColor=#36393d;strokeWidth=1;perimeterSpacing=0;shadow=0;sketch=0;swimlaneLine=1;" parent="j7-8gCURON169_EvJywG-6" vertex="1">
          <mxGeometry x="909" width="42" height="40" as="geometry">
            <mxRectangle width="42" height="40" as="alternateBounds" />
          </mxGeometry>
        </mxCell>
        <mxCell id="j7-8gCURON169_EvJywG-33" style="shape=partialRectangle;html=1;whiteSpace=wrap;connectable=0;fillColor=none;top=0;left=0;bottom=0;right=0;overflow=hidden;fontSize=16;strokeColor=#000000;strokeWidth=1;perimeterSpacing=0;shadow=0;sketch=0;swimlaneLine=1;" parent="j7-8gCURON169_EvJywG-6" vertex="1">
          <mxGeometry x="951" width="41" height="40" as="geometry">
            <mxRectangle width="41" height="40" as="alternateBounds" />
          </mxGeometry>
        </mxCell>
        <mxCell id="j7-8gCURON169_EvJywG-27" style="shape=partialRectangle;html=1;whiteSpace=wrap;connectable=0;fillColor=none;top=0;left=0;bottom=0;right=0;overflow=hidden;fontSize=16;strokeColor=#000000;strokeWidth=1;perimeterSpacing=0;shadow=0;sketch=0;swimlaneLine=1;" parent="j7-8gCURON169_EvJywG-6" vertex="1">
          <mxGeometry x="992" width="41" height="40" as="geometry">
            <mxRectangle width="41" height="40" as="alternateBounds" />
          </mxGeometry>
        </mxCell>
        <mxCell id="j7-8gCURON169_EvJywG-8" value="" style="shape=partialRectangle;html=1;whiteSpace=wrap;connectable=0;fillColor=none;top=0;left=0;bottom=0;right=0;overflow=hidden;fontSize=16;strokeColor=#000000;strokeWidth=1;perimeterSpacing=0;shadow=0;sketch=0;swimlaneLine=1;" parent="j7-8gCURON169_EvJywG-6" vertex="1">
          <mxGeometry x="1033" width="42" height="40" as="geometry">
            <mxRectangle width="42" height="40" as="alternateBounds" />
          </mxGeometry>
        </mxCell>
        <mxCell id="j7-8gCURON169_EvJywG-10" value="" style="shape=tableRow;horizontal=0;startSize=0;swimlaneHead=0;swimlaneBody=0;top=0;left=0;bottom=0;right=0;collapsible=0;dropTarget=0;fillColor=none;points=[[0,0.5],[1,0.5]];portConstraint=eastwest;fontSize=16;strokeColor=#000000;strokeWidth=1;perimeterSpacing=0;shadow=0;sketch=0;swimlaneLine=1;" parent="j7-8gCURON169_EvJywG-1" vertex="1">
          <mxGeometry y="80" width="1075" height="40" as="geometry" />
        </mxCell>
        <mxCell id="j7-8gCURON169_EvJywG-11" value="N2" style="shape=partialRectangle;html=1;whiteSpace=wrap;connectable=0;fillColor=#4D4D4D;top=0;left=0;bottom=0;right=0;overflow=hidden;fontColor=#FFFFFF;fontSize=16;strokeColor=#000000;strokeWidth=1;perimeterSpacing=0;shadow=0;sketch=0;swimlaneLine=1;" parent="j7-8gCURON169_EvJywG-10" vertex="1">
          <mxGeometry width="41" height="40" as="geometry">
            <mxRectangle width="41" height="40" as="alternateBounds" />
          </mxGeometry>
        </mxCell>
        <mxCell id="j7-8gCURON169_EvJywG-166" style="shape=partialRectangle;html=1;whiteSpace=wrap;connectable=0;fillColor=none;top=0;left=0;bottom=0;right=0;overflow=hidden;fontSize=16;strokeColor=#000000;strokeWidth=1;perimeterSpacing=0;shadow=0;sketch=0;swimlaneLine=1;" parent="j7-8gCURON169_EvJywG-10" vertex="1">
          <mxGeometry x="41" width="42" height="40" as="geometry">
            <mxRectangle width="42" height="40" as="alternateBounds" />
          </mxGeometry>
        </mxCell>
        <mxCell id="j7-8gCURON169_EvJywG-160" value="F1" style="shape=partialRectangle;html=1;whiteSpace=wrap;connectable=0;fillColor=#d5e8d4;top=0;left=0;bottom=0;right=0;overflow=hidden;fontSize=16;strokeColor=#82b366;strokeWidth=1;perimeterSpacing=0;shadow=0;sketch=0;swimlaneLine=1;" parent="j7-8gCURON169_EvJywG-10" vertex="1">
          <mxGeometry x="83" width="41" height="40" as="geometry">
            <mxRectangle width="41" height="40" as="alternateBounds" />
          </mxGeometry>
        </mxCell>
        <mxCell id="j7-8gCURON169_EvJywG-154" value="F2" style="shape=partialRectangle;html=1;whiteSpace=wrap;connectable=0;fillColor=#d5e8d4;top=0;left=0;bottom=0;right=0;overflow=hidden;fontSize=16;strokeColor=#82b366;strokeWidth=1;perimeterSpacing=0;shadow=0;sketch=0;swimlaneLine=1;" parent="j7-8gCURON169_EvJywG-10" vertex="1">
          <mxGeometry x="124" width="41" height="40" as="geometry">
            <mxRectangle width="41" height="40" as="alternateBounds" />
          </mxGeometry>
        </mxCell>
        <mxCell id="j7-8gCURON169_EvJywG-148" value="F3" style="shape=partialRectangle;html=1;whiteSpace=wrap;connectable=0;fillColor=#d5e8d4;top=0;left=0;bottom=0;right=0;overflow=hidden;fontSize=16;strokeColor=#82b366;strokeWidth=1;perimeterSpacing=0;shadow=0;sketch=0;swimlaneLine=1;" parent="j7-8gCURON169_EvJywG-10" vertex="1">
          <mxGeometry x="165" width="42" height="40" as="geometry">
            <mxRectangle width="42" height="40" as="alternateBounds" />
          </mxGeometry>
        </mxCell>
        <mxCell id="j7-8gCURON169_EvJywG-142" value="F4" style="shape=partialRectangle;html=1;whiteSpace=wrap;connectable=0;fillColor=#d5e8d4;top=0;left=0;bottom=0;right=0;overflow=hidden;fontSize=16;strokeColor=#82b366;strokeWidth=1;perimeterSpacing=0;shadow=0;sketch=0;swimlaneLine=1;" parent="j7-8gCURON169_EvJywG-10" vertex="1">
          <mxGeometry x="207" width="41" height="40" as="geometry">
            <mxRectangle width="41" height="40" as="alternateBounds" />
          </mxGeometry>
        </mxCell>
        <mxCell id="j7-8gCURON169_EvJywG-136" value="F5" style="shape=partialRectangle;html=1;whiteSpace=wrap;connectable=0;fillColor=#d5e8d4;top=0;left=0;bottom=0;right=0;overflow=hidden;fontSize=16;strokeColor=#82b366;strokeWidth=1;perimeterSpacing=0;shadow=0;sketch=0;swimlaneLine=1;" parent="j7-8gCURON169_EvJywG-10" vertex="1">
          <mxGeometry x="248" width="41" height="40" as="geometry">
            <mxRectangle width="41" height="40" as="alternateBounds" />
          </mxGeometry>
        </mxCell>
        <mxCell id="j7-8gCURON169_EvJywG-130" style="shape=partialRectangle;html=1;whiteSpace=wrap;connectable=0;fillColor=none;top=0;left=0;bottom=0;right=0;overflow=hidden;fontSize=16;strokeColor=#000000;strokeWidth=1;perimeterSpacing=0;shadow=0;sketch=0;swimlaneLine=1;" parent="j7-8gCURON169_EvJywG-10" vertex="1">
          <mxGeometry x="289" width="42" height="40" as="geometry">
            <mxRectangle width="42" height="40" as="alternateBounds" />
          </mxGeometry>
        </mxCell>
        <mxCell id="j7-8gCURON169_EvJywG-124" style="shape=partialRectangle;html=1;whiteSpace=wrap;connectable=0;fillColor=none;top=0;left=0;bottom=0;right=0;overflow=hidden;fontSize=16;strokeColor=#000000;strokeWidth=1;perimeterSpacing=0;shadow=0;sketch=0;swimlaneLine=1;" parent="j7-8gCURON169_EvJywG-10" vertex="1">
          <mxGeometry x="331" width="41" height="40" as="geometry">
            <mxRectangle width="41" height="40" as="alternateBounds" />
          </mxGeometry>
        </mxCell>
        <mxCell id="j7-8gCURON169_EvJywG-118" value="B1" style="shape=partialRectangle;html=1;whiteSpace=wrap;connectable=0;fillColor=#d5e8d4;top=0;left=0;bottom=0;right=0;overflow=hidden;fontSize=16;strokeColor=#82b366;strokeWidth=1;perimeterSpacing=0;shadow=0;sketch=0;swimlaneLine=1;rowspan=1;colspan=2;" parent="j7-8gCURON169_EvJywG-10" vertex="1">
          <mxGeometry x="372" width="83" height="40" as="geometry">
            <mxRectangle width="41" height="40" as="alternateBounds" />
          </mxGeometry>
        </mxCell>
        <mxCell id="j7-8gCURON169_EvJywG-112" style="shape=partialRectangle;html=1;whiteSpace=wrap;connectable=0;fillColor=none;top=0;left=0;bottom=0;right=0;overflow=hidden;fontSize=16;strokeColor=#000000;strokeWidth=1;perimeterSpacing=0;shadow=0;sketch=0;swimlaneLine=1;" parent="j7-8gCURON169_EvJywG-10" vertex="1" visible="0">
          <mxGeometry x="413" width="42" height="40" as="geometry">
            <mxRectangle width="42" height="40" as="alternateBounds" />
          </mxGeometry>
        </mxCell>
        <mxCell id="j7-8gCURON169_EvJywG-100" style="shape=partialRectangle;html=1;whiteSpace=wrap;connectable=0;fillColor=none;top=0;left=0;bottom=0;right=0;overflow=hidden;fontSize=16;strokeColor=#000000;strokeWidth=1;perimeterSpacing=0;shadow=0;sketch=0;swimlaneLine=1;" parent="j7-8gCURON169_EvJywG-10" vertex="1">
          <mxGeometry x="455" width="41" height="40" as="geometry">
            <mxRectangle width="41" height="40" as="alternateBounds" />
          </mxGeometry>
        </mxCell>
        <mxCell id="j7-8gCURON169_EvJywG-88" value="B2" style="shape=partialRectangle;html=1;whiteSpace=wrap;connectable=0;fillColor=#d5e8d4;top=0;left=0;bottom=0;right=0;overflow=hidden;fontSize=16;strokeColor=#82b366;strokeWidth=1;perimeterSpacing=0;shadow=0;sketch=0;swimlaneLine=1;rowspan=1;colspan=2;" parent="j7-8gCURON169_EvJywG-10" vertex="1">
          <mxGeometry x="496" width="83" height="40" as="geometry">
            <mxRectangle width="41" height="40" as="alternateBounds" />
          </mxGeometry>
        </mxCell>
        <mxCell id="j7-8gCURON169_EvJywG-106" value="B5" style="shape=partialRectangle;html=1;whiteSpace=wrap;connectable=0;fillColor=none;top=0;left=0;bottom=0;right=0;overflow=hidden;fontSize=16;strokeColor=#000000;strokeWidth=1;perimeterSpacing=0;shadow=0;sketch=0;swimlaneLine=1;" parent="j7-8gCURON169_EvJywG-10" vertex="1" visible="0">
          <mxGeometry x="537" width="42" height="40" as="geometry">
            <mxRectangle width="42" height="40" as="alternateBounds" />
          </mxGeometry>
        </mxCell>
        <mxCell id="j7-8gCURON169_EvJywG-76" style="shape=partialRectangle;html=1;whiteSpace=wrap;connectable=0;fillColor=none;top=0;left=0;bottom=0;right=0;overflow=hidden;fontSize=16;strokeColor=#000000;strokeWidth=1;shadow=0;sketch=0;" parent="j7-8gCURON169_EvJywG-10" vertex="1">
          <mxGeometry x="579" width="41" height="40" as="geometry">
            <mxRectangle width="41" height="40" as="alternateBounds" />
          </mxGeometry>
        </mxCell>
        <mxCell id="j7-8gCURON169_EvJywG-94" value="B3" style="shape=partialRectangle;html=1;whiteSpace=wrap;connectable=0;fillColor=#d5e8d4;top=0;left=0;bottom=0;right=0;overflow=hidden;fontSize=16;strokeColor=#82b366;strokeWidth=1;perimeterSpacing=0;shadow=0;sketch=0;swimlaneLine=1;rowspan=1;colspan=2;" parent="j7-8gCURON169_EvJywG-10" vertex="1">
          <mxGeometry x="620" width="83" height="40" as="geometry">
            <mxRectangle width="41" height="40" as="alternateBounds" />
          </mxGeometry>
        </mxCell>
        <mxCell id="j7-8gCURON169_EvJywG-64" style="shape=partialRectangle;html=1;whiteSpace=wrap;connectable=0;fillColor=none;top=0;left=0;bottom=0;right=0;overflow=hidden;fontSize=16;strokeColor=#000000;strokeWidth=1;shadow=0;sketch=0;" parent="j7-8gCURON169_EvJywG-10" vertex="1" visible="0">
          <mxGeometry x="661" width="42" height="40" as="geometry">
            <mxRectangle width="42" height="40" as="alternateBounds" />
          </mxGeometry>
        </mxCell>
        <mxCell id="j7-8gCURON169_EvJywG-82" value="" style="shape=partialRectangle;html=1;whiteSpace=wrap;connectable=0;fillColor=none;top=0;left=0;bottom=0;right=0;overflow=hidden;fontSize=16;strokeColor=#000000;strokeWidth=1;perimeterSpacing=0;shadow=0;sketch=0;swimlaneLine=1;" parent="j7-8gCURON169_EvJywG-10" vertex="1">
          <mxGeometry x="703" width="41" height="40" as="geometry">
            <mxRectangle width="41" height="40" as="alternateBounds" />
          </mxGeometry>
        </mxCell>
        <mxCell id="j7-8gCURON169_EvJywG-52" value="B4" style="shape=partialRectangle;html=1;whiteSpace=wrap;connectable=0;fillColor=#d5e8d4;top=0;left=0;bottom=0;right=0;overflow=hidden;fontSize=16;strokeColor=#82b366;strokeWidth=1;shadow=0;sketch=0;rowspan=1;colspan=2;" parent="j7-8gCURON169_EvJywG-10" vertex="1">
          <mxGeometry x="744" width="83" height="40" as="geometry">
            <mxRectangle width="41" height="40" as="alternateBounds" />
          </mxGeometry>
        </mxCell>
        <mxCell id="j7-8gCURON169_EvJywG-70" value="B2" style="shape=partialRectangle;html=1;whiteSpace=wrap;connectable=0;fillColor=none;top=0;left=0;bottom=0;right=0;overflow=hidden;fontSize=16;strokeColor=#000000;strokeWidth=1;perimeterSpacing=0;shadow=0;sketch=0;swimlaneLine=1;" parent="j7-8gCURON169_EvJywG-10" vertex="1" visible="0">
          <mxGeometry x="785" width="42" height="40" as="geometry">
            <mxRectangle width="42" height="40" as="alternateBounds" />
          </mxGeometry>
        </mxCell>
        <mxCell id="j7-8gCURON169_EvJywG-46" style="shape=partialRectangle;html=1;whiteSpace=wrap;connectable=0;fillColor=none;top=0;left=0;bottom=0;right=0;overflow=hidden;fontSize=16;strokeColor=#000000;strokeWidth=1;shadow=0;sketch=0;" parent="j7-8gCURON169_EvJywG-10" vertex="1">
          <mxGeometry x="827" width="41" height="40" as="geometry">
            <mxRectangle width="41" height="40" as="alternateBounds" />
          </mxGeometry>
        </mxCell>
        <mxCell id="j7-8gCURON169_EvJywG-58" value="B5" style="shape=partialRectangle;html=1;whiteSpace=wrap;connectable=0;fillColor=#d5e8d4;top=0;left=0;bottom=0;right=0;overflow=hidden;fontSize=16;strokeColor=#82b366;strokeWidth=1;perimeterSpacing=0;shadow=0;sketch=0;swimlaneLine=1;rowspan=1;colspan=2;" parent="j7-8gCURON169_EvJywG-10" vertex="1">
          <mxGeometry x="868" width="83" height="40" as="geometry">
            <mxRectangle width="41" height="40" as="alternateBounds" />
          </mxGeometry>
        </mxCell>
        <mxCell id="j7-8gCURON169_EvJywG-40" style="shape=partialRectangle;html=1;whiteSpace=wrap;connectable=0;fillColor=none;top=0;left=0;bottom=0;right=0;overflow=hidden;fontSize=16;strokeColor=#000000;strokeWidth=1;shadow=0;sketch=0;" parent="j7-8gCURON169_EvJywG-10" vertex="1" visible="0">
          <mxGeometry x="909" width="42" height="40" as="geometry">
            <mxRectangle width="42" height="40" as="alternateBounds" />
          </mxGeometry>
        </mxCell>
        <mxCell id="j7-8gCURON169_EvJywG-34" style="shape=partialRectangle;html=1;whiteSpace=wrap;connectable=0;fillColor=none;top=0;left=0;bottom=0;right=0;overflow=hidden;fontSize=16;strokeColor=#000000;strokeWidth=1;perimeterSpacing=0;shadow=0;sketch=0;swimlaneLine=1;" parent="j7-8gCURON169_EvJywG-10" vertex="1">
          <mxGeometry x="951" width="41" height="40" as="geometry">
            <mxRectangle width="41" height="40" as="alternateBounds" />
          </mxGeometry>
        </mxCell>
        <mxCell id="j7-8gCURON169_EvJywG-28" style="shape=partialRectangle;html=1;whiteSpace=wrap;connectable=0;fillColor=none;top=0;left=0;bottom=0;right=0;overflow=hidden;fontSize=16;strokeColor=#000000;strokeWidth=1;perimeterSpacing=0;shadow=0;sketch=0;swimlaneLine=1;" parent="j7-8gCURON169_EvJywG-10" vertex="1">
          <mxGeometry x="992" width="41" height="40" as="geometry">
            <mxRectangle width="41" height="40" as="alternateBounds" />
          </mxGeometry>
        </mxCell>
        <mxCell id="j7-8gCURON169_EvJywG-12" value="" style="shape=partialRectangle;html=1;whiteSpace=wrap;connectable=0;fillColor=none;top=0;left=0;bottom=0;right=0;overflow=hidden;fontSize=16;strokeColor=#000000;strokeWidth=1;perimeterSpacing=0;shadow=0;sketch=0;swimlaneLine=1;" parent="j7-8gCURON169_EvJywG-10" vertex="1">
          <mxGeometry x="1033" width="42" height="40" as="geometry">
            <mxRectangle width="42" height="40" as="alternateBounds" />
          </mxGeometry>
        </mxCell>
        <mxCell id="j7-8gCURON169_EvJywG-14" style="shape=tableRow;horizontal=0;startSize=0;swimlaneHead=0;swimlaneBody=0;top=0;left=0;bottom=0;right=0;collapsible=0;dropTarget=0;fillColor=none;points=[[0,0.5],[1,0.5]];portConstraint=eastwest;fontSize=16;strokeColor=#000000;strokeWidth=1;perimeterSpacing=0;shadow=0;sketch=0;swimlaneLine=1;" parent="j7-8gCURON169_EvJywG-1" vertex="1">
          <mxGeometry y="120" width="1075" height="40" as="geometry" />
        </mxCell>
        <mxCell id="j7-8gCURON169_EvJywG-15" value="N1" style="shape=partialRectangle;html=1;whiteSpace=wrap;connectable=0;fillColor=#4D4D4D;top=0;left=0;bottom=0;right=0;overflow=hidden;fontColor=#FFFFFF;fontSize=16;strokeColor=#000000;strokeWidth=1;perimeterSpacing=0;shadow=0;sketch=0;swimlaneLine=1;" parent="j7-8gCURON169_EvJywG-14" vertex="1">
          <mxGeometry width="41" height="40" as="geometry">
            <mxRectangle width="41" height="40" as="alternateBounds" />
          </mxGeometry>
        </mxCell>
        <mxCell id="j7-8gCURON169_EvJywG-167" value="F1" style="shape=partialRectangle;html=1;whiteSpace=wrap;connectable=0;fillColor=#dae8fc;top=0;left=0;bottom=0;right=0;overflow=hidden;fontSize=16;strokeColor=#6c8ebf;strokeWidth=1;perimeterSpacing=0;shadow=0;sketch=0;swimlaneLine=1;" parent="j7-8gCURON169_EvJywG-14" vertex="1">
          <mxGeometry x="41" width="42" height="40" as="geometry">
            <mxRectangle width="42" height="40" as="alternateBounds" />
          </mxGeometry>
        </mxCell>
        <mxCell id="j7-8gCURON169_EvJywG-161" value="F2" style="shape=partialRectangle;html=1;whiteSpace=wrap;connectable=0;fillColor=#dae8fc;top=0;left=0;bottom=0;right=0;overflow=hidden;fontSize=16;strokeColor=#6c8ebf;strokeWidth=1;perimeterSpacing=0;shadow=0;sketch=0;swimlaneLine=1;" parent="j7-8gCURON169_EvJywG-14" vertex="1">
          <mxGeometry x="83" width="41" height="40" as="geometry">
            <mxRectangle width="41" height="40" as="alternateBounds" />
          </mxGeometry>
        </mxCell>
        <mxCell id="j7-8gCURON169_EvJywG-155" value="F3" style="shape=partialRectangle;html=1;whiteSpace=wrap;connectable=0;fillColor=#dae8fc;top=0;left=0;bottom=0;right=0;overflow=hidden;fontSize=16;strokeColor=#6c8ebf;strokeWidth=1;perimeterSpacing=0;shadow=0;sketch=0;swimlaneLine=1;" parent="j7-8gCURON169_EvJywG-14" vertex="1">
          <mxGeometry x="124" width="41" height="40" as="geometry">
            <mxRectangle width="41" height="40" as="alternateBounds" />
          </mxGeometry>
        </mxCell>
        <mxCell id="j7-8gCURON169_EvJywG-149" value="F4" style="shape=partialRectangle;html=1;whiteSpace=wrap;connectable=0;fillColor=#dae8fc;top=0;left=0;bottom=0;right=0;overflow=hidden;fontSize=16;strokeColor=#6c8ebf;strokeWidth=1;perimeterSpacing=0;shadow=0;sketch=0;swimlaneLine=1;" parent="j7-8gCURON169_EvJywG-14" vertex="1">
          <mxGeometry x="165" width="42" height="40" as="geometry">
            <mxRectangle width="42" height="40" as="alternateBounds" />
          </mxGeometry>
        </mxCell>
        <mxCell id="j7-8gCURON169_EvJywG-143" value="F5" style="shape=partialRectangle;html=1;whiteSpace=wrap;connectable=0;fillColor=#dae8fc;top=0;left=0;bottom=0;right=0;overflow=hidden;fontSize=16;strokeColor=#6c8ebf;strokeWidth=1;perimeterSpacing=0;shadow=0;sketch=0;swimlaneLine=1;fillStyle=solid;" parent="j7-8gCURON169_EvJywG-14" vertex="1">
          <mxGeometry x="207" width="41" height="40" as="geometry">
            <mxRectangle width="41" height="40" as="alternateBounds" />
          </mxGeometry>
        </mxCell>
        <mxCell id="j7-8gCURON169_EvJywG-137" value="FR1" style="shape=partialRectangle;html=1;whiteSpace=wrap;connectable=0;fillColor=#eeeeee;top=0;left=0;bottom=0;right=0;overflow=hidden;fontSize=16;strokeColor=#36393d;strokeWidth=1;perimeterSpacing=0;shadow=0;sketch=0;swimlaneLine=1;" parent="j7-8gCURON169_EvJywG-14" vertex="1">
          <mxGeometry x="248" width="41" height="40" as="geometry">
            <mxRectangle width="41" height="40" as="alternateBounds" />
          </mxGeometry>
        </mxCell>
        <mxCell id="j7-8gCURON169_EvJywG-131" value="FR2" style="shape=partialRectangle;html=1;whiteSpace=wrap;connectable=0;fillColor=#eeeeee;top=0;left=0;bottom=0;right=0;overflow=hidden;fontSize=16;strokeColor=#36393d;strokeWidth=1;perimeterSpacing=0;shadow=0;sketch=0;swimlaneLine=1;" parent="j7-8gCURON169_EvJywG-14" vertex="1">
          <mxGeometry x="289" width="42" height="40" as="geometry">
            <mxRectangle width="42" height="40" as="alternateBounds" />
          </mxGeometry>
        </mxCell>
        <mxCell id="j7-8gCURON169_EvJywG-125" value="FR3" style="shape=partialRectangle;html=1;whiteSpace=wrap;connectable=0;fillColor=#eeeeee;top=0;left=0;bottom=0;right=0;overflow=hidden;fontSize=16;strokeColor=#36393d;strokeWidth=1;perimeterSpacing=0;shadow=0;sketch=0;swimlaneLine=1;" parent="j7-8gCURON169_EvJywG-14" vertex="1">
          <mxGeometry x="331" width="41" height="40" as="geometry">
            <mxRectangle width="41" height="40" as="alternateBounds" />
          </mxGeometry>
        </mxCell>
        <mxCell id="j7-8gCURON169_EvJywG-119" value="FR4" style="shape=partialRectangle;html=1;whiteSpace=wrap;connectable=0;fillColor=#eeeeee;top=0;left=0;bottom=0;right=0;overflow=hidden;fontSize=16;strokeColor=#36393d;strokeWidth=1;perimeterSpacing=0;shadow=0;sketch=0;swimlaneLine=1;" parent="j7-8gCURON169_EvJywG-14" vertex="1">
          <mxGeometry x="372" width="41" height="40" as="geometry">
            <mxRectangle width="41" height="40" as="alternateBounds" />
          </mxGeometry>
        </mxCell>
        <mxCell id="j7-8gCURON169_EvJywG-113" value="FR5" style="shape=partialRectangle;html=1;whiteSpace=wrap;connectable=0;fillColor=#eeeeee;top=0;left=0;bottom=0;right=0;overflow=hidden;fontSize=16;strokeColor=#36393d;strokeWidth=1;perimeterSpacing=0;shadow=0;sketch=0;swimlaneLine=1;" parent="j7-8gCURON169_EvJywG-14" vertex="1">
          <mxGeometry x="413" width="42" height="40" as="geometry">
            <mxRectangle width="42" height="40" as="alternateBounds" />
          </mxGeometry>
        </mxCell>
        <mxCell id="j7-8gCURON169_EvJywG-107" value="B1" style="shape=partialRectangle;html=1;whiteSpace=wrap;connectable=0;fillColor=#dae8fc;top=0;left=0;bottom=0;right=0;overflow=hidden;fontSize=16;strokeColor=#6c8ebf;strokeWidth=1;perimeterSpacing=0;shadow=0;sketch=0;swimlaneLine=1;rowspan=1;colspan=2;" parent="j7-8gCURON169_EvJywG-14" vertex="1">
          <mxGeometry x="455" width="82" height="40" as="geometry">
            <mxRectangle width="41" height="40" as="alternateBounds" />
          </mxGeometry>
        </mxCell>
        <mxCell id="j7-8gCURON169_EvJywG-95" style="shape=partialRectangle;html=1;whiteSpace=wrap;connectable=0;fillColor=none;top=0;left=0;bottom=0;right=0;overflow=hidden;fontSize=16;strokeColor=#000000;strokeWidth=1;perimeterSpacing=0;shadow=0;sketch=0;swimlaneLine=1;" parent="j7-8gCURON169_EvJywG-14" vertex="1" visible="0">
          <mxGeometry x="496" width="41" height="40" as="geometry">
            <mxRectangle width="41" height="40" as="alternateBounds" />
          </mxGeometry>
        </mxCell>
        <mxCell id="j7-8gCURON169_EvJywG-83" value="BR1" style="shape=partialRectangle;html=1;whiteSpace=wrap;connectable=0;fillColor=#eeeeee;top=0;left=0;bottom=0;right=0;overflow=hidden;fontSize=16;strokeColor=#36393d;strokeWidth=1;perimeterSpacing=0;shadow=0;sketch=0;swimlaneLine=1;" parent="j7-8gCURON169_EvJywG-14" vertex="1">
          <mxGeometry x="537" width="42" height="40" as="geometry">
            <mxRectangle width="42" height="40" as="alternateBounds" />
          </mxGeometry>
        </mxCell>
        <mxCell id="j7-8gCURON169_EvJywG-71" value="B2" style="shape=partialRectangle;html=1;whiteSpace=wrap;connectable=0;fillColor=#dae8fc;top=0;left=0;bottom=0;right=0;overflow=hidden;fontSize=16;strokeColor=#6c8ebf;strokeWidth=1;perimeterSpacing=0;shadow=0;sketch=0;swimlaneLine=1;rowspan=1;colspan=2;" parent="j7-8gCURON169_EvJywG-14" vertex="1">
          <mxGeometry x="579" width="82" height="40" as="geometry">
            <mxRectangle width="41" height="40" as="alternateBounds" />
          </mxGeometry>
        </mxCell>
        <mxCell id="j7-8gCURON169_EvJywG-101" value="B5" style="shape=partialRectangle;html=1;whiteSpace=wrap;connectable=0;fillColor=none;top=0;left=0;bottom=0;right=0;overflow=hidden;fontSize=16;strokeColor=#000000;strokeWidth=1;perimeterSpacing=0;shadow=0;sketch=0;swimlaneLine=1;" parent="j7-8gCURON169_EvJywG-14" vertex="1" visible="0">
          <mxGeometry x="620" width="41" height="40" as="geometry">
            <mxRectangle width="41" height="40" as="alternateBounds" />
          </mxGeometry>
        </mxCell>
        <mxCell id="j7-8gCURON169_EvJywG-59" value="BR2" style="shape=partialRectangle;html=1;whiteSpace=wrap;connectable=0;fillColor=#eeeeee;top=0;left=0;bottom=0;right=0;overflow=hidden;fontSize=16;strokeColor=#36393d;strokeWidth=1;shadow=0;sketch=0;" parent="j7-8gCURON169_EvJywG-14" vertex="1">
          <mxGeometry x="661" width="42" height="40" as="geometry">
            <mxRectangle width="42" height="40" as="alternateBounds" />
          </mxGeometry>
        </mxCell>
        <mxCell id="j7-8gCURON169_EvJywG-89" value="B3" style="shape=partialRectangle;html=1;whiteSpace=wrap;connectable=0;fillColor=#dae8fc;top=0;left=0;bottom=0;right=0;overflow=hidden;fontSize=16;strokeColor=#6c8ebf;strokeWidth=1;perimeterSpacing=0;shadow=0;sketch=0;swimlaneLine=1;rowspan=1;colspan=2;" parent="j7-8gCURON169_EvJywG-14" vertex="1">
          <mxGeometry x="703" width="82" height="40" as="geometry">
            <mxRectangle width="41" height="40" as="alternateBounds" />
          </mxGeometry>
        </mxCell>
        <mxCell id="j7-8gCURON169_EvJywG-47" style="shape=partialRectangle;html=1;whiteSpace=wrap;connectable=0;fillColor=none;top=0;left=0;bottom=0;right=0;overflow=hidden;fontSize=16;strokeColor=#000000;strokeWidth=1;shadow=0;sketch=0;" parent="j7-8gCURON169_EvJywG-14" vertex="1" visible="0">
          <mxGeometry x="744" width="41" height="40" as="geometry">
            <mxRectangle width="41" height="40" as="alternateBounds" />
          </mxGeometry>
        </mxCell>
        <mxCell id="j7-8gCURON169_EvJywG-77" value="BR3" style="shape=partialRectangle;html=1;whiteSpace=wrap;connectable=0;fillColor=#eeeeee;top=0;left=0;bottom=0;right=0;overflow=hidden;fontSize=16;strokeColor=#36393d;strokeWidth=1;perimeterSpacing=0;shadow=0;sketch=0;swimlaneLine=1;" parent="j7-8gCURON169_EvJywG-14" vertex="1">
          <mxGeometry x="785" width="42" height="40" as="geometry">
            <mxRectangle width="42" height="40" as="alternateBounds" />
          </mxGeometry>
        </mxCell>
        <mxCell id="j7-8gCURON169_EvJywG-41" value="B4" style="shape=partialRectangle;html=1;whiteSpace=wrap;connectable=0;fillColor=#dae8fc;top=0;left=0;bottom=0;right=0;overflow=hidden;fontSize=16;strokeColor=#6c8ebf;strokeWidth=1;shadow=0;sketch=0;rowspan=1;colspan=2;" parent="j7-8gCURON169_EvJywG-14" vertex="1">
          <mxGeometry x="827" width="82" height="40" as="geometry">
            <mxRectangle width="41" height="40" as="alternateBounds" />
          </mxGeometry>
        </mxCell>
        <mxCell id="j7-8gCURON169_EvJywG-65" value="B2" style="shape=partialRectangle;html=1;whiteSpace=wrap;connectable=0;fillColor=none;top=0;left=0;bottom=0;right=0;overflow=hidden;fontSize=16;strokeColor=#000000;strokeWidth=1;perimeterSpacing=0;shadow=0;sketch=0;swimlaneLine=1;" parent="j7-8gCURON169_EvJywG-14" vertex="1" visible="0">
          <mxGeometry x="868" width="41" height="40" as="geometry">
            <mxRectangle width="41" height="40" as="alternateBounds" />
          </mxGeometry>
        </mxCell>
        <mxCell id="j7-8gCURON169_EvJywG-35" value="BR4" style="shape=partialRectangle;html=1;whiteSpace=wrap;connectable=0;fillColor=#eeeeee;top=0;left=0;bottom=0;right=0;overflow=hidden;fontSize=16;strokeColor=#36393d;strokeWidth=1;shadow=0;sketch=0;" parent="j7-8gCURON169_EvJywG-14" vertex="1">
          <mxGeometry x="909" width="42" height="40" as="geometry">
            <mxRectangle width="42" height="40" as="alternateBounds" />
          </mxGeometry>
        </mxCell>
        <mxCell id="j7-8gCURON169_EvJywG-53" value="B5" style="shape=partialRectangle;html=1;whiteSpace=wrap;connectable=0;fillColor=#dae8fc;top=0;left=0;bottom=0;right=0;overflow=hidden;fontSize=16;strokeColor=#6c8ebf;strokeWidth=1;perimeterSpacing=0;shadow=0;sketch=0;swimlaneLine=1;rowspan=1;colspan=2;" parent="j7-8gCURON169_EvJywG-14" vertex="1">
          <mxGeometry x="951" width="82" height="40" as="geometry">
            <mxRectangle width="41" height="40" as="alternateBounds" />
          </mxGeometry>
        </mxCell>
        <mxCell id="j7-8gCURON169_EvJywG-29" style="shape=partialRectangle;html=1;whiteSpace=wrap;connectable=0;fillColor=none;top=0;left=0;bottom=0;right=0;overflow=hidden;fontSize=16;strokeColor=#000000;strokeWidth=1;shadow=0;sketch=0;" parent="j7-8gCURON169_EvJywG-14" vertex="1" visible="0">
          <mxGeometry x="992" width="41" height="40" as="geometry">
            <mxRectangle width="41" height="40" as="alternateBounds" />
          </mxGeometry>
        </mxCell>
        <mxCell id="j7-8gCURON169_EvJywG-16" value="BR5" style="shape=partialRectangle;html=1;whiteSpace=wrap;connectable=0;fillColor=#eeeeee;top=0;left=0;bottom=0;right=0;overflow=hidden;fontSize=16;strokeColor=#36393d;strokeWidth=1;perimeterSpacing=0;shadow=0;sketch=0;swimlaneLine=1;" parent="j7-8gCURON169_EvJywG-14" vertex="1">
          <mxGeometry x="1033" width="42" height="40" as="geometry">
            <mxRectangle width="42" height="40" as="alternateBounds" />
          </mxGeometry>
        </mxCell>
      </root>
    </mxGraphModel>
  </diagram>
</mxfile>
